<svg xmlns="http://www.w3.org/2000/svg" version="1.1" xmlns:xlink="http://www.w3.org/1999/xlink" xmlns:svgjs="http://svgjs.dev/svgjs" viewBox="0 0 1422 800"><defs><linearGradient x1="50%" y1="0%" x2="50%" y2="100%" id="oooscillate-grad"><stop stop-color="hsl(30, 100%, 50%)" stop-opacity="1" offset="0%"></stop><stop stop-color="hsl(30, 100%, 70%)" stop-opacity="1" offset="100%"></stop></linearGradient></defs><g stroke-width="2.5" stroke="url(#oooscillate-grad)" fill="none" stroke-linecap="round"><path d="M 0 576 Q 355.5 -100 711 400 Q 1066.5 900 1422 576"></path><path d="M 0 558 Q 355.5 -100 711 400 Q 1066.5 900 1422 558"></path><path d="M 0 540 Q 355.5 -100 711 400 Q 1066.5 900 1422 540"></path><path d="M 0 522 Q 355.5 -100 711 400 Q 1066.5 900 1422 522"></path><path d="M 0 504 Q 355.5 -100 711 400 Q 1066.5 900 1422 504"></path><path d="M 0 486 Q 355.5 -100 711 400 Q 1066.5 900 1422 486"></path><path d="M 0 468 Q 355.5 -100 711 400 Q 1066.5 900 1422 468"></path><path d="M 0 450 Q 355.5 -100 711 400 Q 1066.5 900 1422 450"></path><path d="M 0 432 Q 355.5 -100 711 400 Q 1066.5 900 1422 432"></path><path d="M 0 414 Q 355.5 -100 711 400 Q 1066.5 900 1422 414"></path><path d="M 0 396 Q 355.5 -100 711 400 Q 1066.5 900 1422 396"></path><path d="M 0 378 Q 355.5 -100 711 400 Q 1066.5 900 1422 378"></path><path d="M 0 360 Q 355.5 -100 711 400 Q 1066.5 900 1422 360"></path><path d="M 0 342 Q 355.5 -100 711 400 Q 1066.5 900 1422 342"></path><path d="M 0 324 Q 355.5 -100 711 400 Q 1066.5 900 1422 324"></path><path d="M 0 306 Q 355.5 -100 711 400 Q 1066.5 900 1422 306"></path><path d="M 0 288 Q 355.5 -100 711 400 Q 1066.5 900 1422 288"></path><path d="M 0 270 Q 355.5 -100 711 400 Q 1066.5 900 1422 270"></path><path d="M 0 252 Q 355.5 -100 711 400 Q 1066.5 900 1422 252"></path><path d="M 0 234 Q 355.5 -100 711 400 Q 1066.5 900 1422 234"></path><path d="M 0 216 Q 355.5 -100 711 400 Q 1066.5 900 1422 216"></path><path d="M 0 198 Q 355.5 -100 711 400 Q 1066.5 900 1422 198"></path><path d="M 0 180 Q 355.5 -100 711 400 Q 1066.5 900 1422 180"></path><path d="M 0 162 Q 355.5 -100 711 400 Q 1066.5 900 1422 162"></path><path d="M 0 144 Q 355.5 -100 711 400 Q 1066.5 900 1422 144"></path><path d="M 0 126 Q 355.5 -100 711 400 Q 1066.5 900 1422 126"></path><path d="M 0 108 Q 355.5 -100 711 400 Q 1066.5 900 1422 108"></path><path d="M 0 90 Q 355.5 -100 711 400 Q 1066.5 900 1422 90"></path><path d="M 0 72 Q 355.5 -100 711 400 Q 1066.5 900 1422 72"></path><path d="M 0 54 Q 355.5 -100 711 400 Q 1066.5 900 1422 54"></path><path d="M 0 36 Q 355.5 -100 711 400 Q 1066.5 900 1422 36"></path></g></svg>